<?xml version="1.0" encoding="utf-8"?>
<!-- Generator: Adobe Illustrator 19.0.0, SVG Export Plug-In . SVG Version: 6.00 Build 0)  -->
<svg version="1.1" id="Layer_1" xmlns="http://www.w3.org/2000/svg" xmlns:xlink="http://www.w3.org/1999/xlink" x="0px" y="0px"
	 viewBox="0 0 104.5 104.5" style="enable-background:new 0 0 104.5 104.5;" xml:space="preserve">
<style type="text/css">
	.st0{fill:#36E52C;}
	.st1{fill:none;stroke:#FFFFFF;stroke-width:1.5;stroke-miterlimit:10;}
	.st2{fill:#FFFFFF;}
</style>
<g id="XMLID_8_">
	<circle id="XMLID_12_" class="st0" cx="52.3" cy="52.3" r="52.3"/>
	<circle id="XMLID_11_" class="st1" cx="52.3" cy="52.3" r="49.6"/>
	<g id="XMLID_9_">
		<path id="XMLID_10_" class="st2" d="M44.2,60.2c2.5,0,5.7,0,8,0c0-1.5,0-3,0-4.5c-1,0-2.4,0-3.3,0c-0.8,0-0.8-0.4-0.8-1.2
			c0-1.2,0-2.4,0-3.5c0-0.8-0.1-1.2,0.7-1.2c0.9,0,2.3,0,3.4,0c0-1.3,0-2.6,0-3.8c0.2-5.7,4.7-10.6,10.3-10.8
			c5.5-0.3,7.1-0.1,12.6-0.1c0.4,0,0.8,0.6,1.1,1c0.2,0.3,0,0.7,0,1.1c0,6.6,0,13.1,0,19.7c0,2,1.3,3.5,3.3,3.8
			c1.7,0.3,3.5-0.8,4.1-2.5c0.2-0.5,0.2-1,0.2-1.6c0-6.6,0-13.2,0-19.8c0-1.7,0.1-1.7,1.7-1.7c1,0,2,0,3.1,0c1-0.1,1.4,0.3,1.4,1.3
			c0,6.1,0,12.2,0,18.3c0,2.2,0.1,4.3-0.1,6.5c-0.2,1.9-0.5,3.9-1.3,5.7c-6,13.9-16.2,22.6-31.3,24.9c-11,1.7-20.9-1.1-29.8-7.8
			c-0.4-0.3-0.7-0.5-1.1-0.9c-1.7,1.3-3.3,2.5-5.2,3.9c0.5-4.6,0.9-8.8,1.4-13.2c4.7,0.5,9.1,1,14,1.5C35,76.7,33.5,77.8,32,79
			c15.2,12.4,40.7,7.6,49.6-12c-1-0.1-2,0-3-0.2c-5-0.9-8.2-4.8-8.2-9.9c0-4.9,0-9.8,0-14.7c0-0.4,0-0.9,0-1.3
			c-0.1-0.1-0.2-0.2-0.3-0.2c-3.7,0-3.5-0.1-7.2,0.1c-2.3,0.1-4.4,2.2-4.8,4.6c-0.2,1.4,0,2.8,0,4.4c1.7,0,3.4,0,5.1,0
			c1,0,1.4,0.4,1.3,1.4c-0.1,1.1-0.1,2.1,0,3.2c0.1,1-0.3,1.5-1.4,1.4c-1.6-0.1-3.2,0-5.1,0c0,1.6,0,3.1,0,4.7c0,1.3,0,2.6-0.2,3.9
			c-0.3,1.6-1.2,2.4-2.9,2.4c-4.4,0-9.7,0-14.1,0c-1.7,0-2.5-0.9-2.5-2.6c0-6.2,0-12.5,0-18.7c0-1.8-0.9-3.3-2.5-3.8
			c-1.6-0.6-3.3-0.2-4.3,1.1c-0.5,0.8-0.9,1.9-0.9,2.8c-0.1,6.2,0,12.4,0,18.6c0,1.9-0.6,2.6-2.5,2.6c-2.8,0-8.7,0-11.4,0
			c-1.1,0-1.7-0.5-2-1.4c-0.6-2.2-1.3-4.3-1.6-6.5c-1.8-13.3,1.9-24.9,11.6-34.3c13.2-12.9,33.2-14.7,48.8-4.8
			c0.2,0.1,0.4,0.2,0.7,0.4c1.4-1.3,2.8-2.7,4.5-4.3c0,4.5,0,8.7,0,13.1c-4.1-0.3-8.2-0.6-12.6-1c1.4-1.3,2.7-2.4,4-3.5
			c-3.8-2.5-7.6-3.9-11.7-4.4c-10-1.2-19.2,0.8-27.1,7.2c-8.8,7.1-12.3,16.1-12.3,27.3c0,3.6,0.9,5.8,0.9,5.8l4.9,0c0,0,0-0.8,0-1.2
			c0-4.7,0-9.5,0-14.2c0-5.7,4.2-9.9,9.7-9.9c5.6,0,9.9,4.3,9.9,9.9c0,4.6,0,9.2,0,13.8C44.2,59.2,44.2,59.6,44.2,60.2z"/>
	</g>
</g>
</svg>
