<?xml version="1.0" encoding="utf-8"?>
<!-- Generator: Adobe Illustrator 19.0.0, SVG Export Plug-In . SVG Version: 6.00 Build 0)  -->
<svg version="1.1" id="Layer_1" xmlns="http://www.w3.org/2000/svg" xmlns:xlink="http://www.w3.org/1999/xlink" x="0px" y="0px"
	 viewBox="0 0 14.9 12.1" style="enable-background:new 0 0 14.9 12.1;" xml:space="preserve">
<style type="text/css">
	.st0{fill:#FFFFFF;stroke:#FFFFFF;stroke-width:0.719;stroke-miterlimit:10;}
</style>
<path id="XMLID_603_" class="st0" d="M1.3,0.9C3,2.5,4.6,3.6,6.7,3.8c0.1-0.5,0.2-1,0.4-1.5c0.7-1.8,2.6-2.4,4.3-1.5
	c0.6,0.3,1.3,0.5,2.1,0.7c0,0-0.1,0.3-0.3,0.7c0.3,0,0.6-0.1,1-0.1c-0.2,0.3-0.2,0.4-0.3,0.5C13,3.1,12.8,4,12.7,5
	c-0.8,5.7-6.6,8.5-11.8,5.6C2,10.2,3.1,9.9,4.3,9.5C2.1,8.2,1.8,7.7,2.6,7.1c-0.4-0.5-1-0.9-1.3-1.4c-0.2-0.4-1.2-0.9,0-1.5
	c0.1,0-0.1-0.6-0.1-1C1.1,2.6,1.2,1.9,1.3,0.9z"/>
</svg>
