<?xml version="1.0" encoding="utf-8"?>
<!-- Generator: Adobe Illustrator 19.0.0, SVG Export Plug-In . SVG Version: 6.00 Build 0)  -->
<svg version="1.1" id="Layer_1" xmlns="http://www.w3.org/2000/svg" xmlns:xlink="http://www.w3.org/1999/xlink" x="0px" y="0px"
	 viewBox="0 0 14.7 17.1" style="enable-background:new 0 0 14.7 17.1;" xml:space="preserve">
<style type="text/css">
	.st0{fill:#FFFFFF;stroke:#FFFFFF;stroke-width:0.719;stroke-miterlimit:10;}
</style>
<g id="dlQzeE_8_">
	<g id="XMLID_140_">
		<path id="XMLID_141_" class="st0" d="M5.6,1.8C7.3,1.3,9.1,1.3,11,1.9c0.5-0.6,1.1-1.4,2.1-1.5c0.4,0.7,0.4,1.5,0.2,2.3
			c-0.1,0.3-0.1,0.6,0.2,0.8c0.1,0,0.1,0.1,0.1,0.2c0.8,1.7,0.9,3.4,0.3,5.1c-0.5,1.5-1.8,2.2-3.3,2.5c-0.2,0-0.3,0.1-0.5,0.1
			c-0.1,0-0.1,0-0.2,0.1c0.8,1.7,0.3,3.6,0.5,5.4c-1.5,0-2.9,0-4.4,0c0-0.7,0-1.4,0-2.1c-0.5,0-0.9,0-1.3,0
			c-1.1-0.1-1.9-0.6-2.5-1.5c-0.5-0.8-1-1.5-1.5-2.4c0.3,0,0.7,0,0.9,0.1c0.4,0.2,0.8,0.6,1,1c0.7,1,1.6,1.4,2.8,1.2
			c0.3,0,0.5-0.1,0.6-0.5c0-0.4,0.2-0.8,0.4-1.2c-0.5-0.2-1.1-0.3-1.6-0.5c-1.7-0.7-2.6-2-2.6-3.8C2.1,6,2,4.9,2.6,4
			C3,3.3,3.2,2.7,3,2C2.9,1.8,3,1.6,3,1.4c0.1-1.1,0.4-1.2,1.3-0.6C4.7,1.1,5.1,1.5,5.6,1.8z"/>
	</g>
</g>
</svg>
