<?xml version="1.0" encoding="utf-8"?>
<!-- Generator: Adobe Illustrator 19.0.0, SVG Export Plug-In . SVG Version: 6.00 Build 0)  -->
<svg version="1.1" id="Layer_1" xmlns="http://www.w3.org/2000/svg" xmlns:xlink="http://www.w3.org/1999/xlink" x="0px" y="0px"
	 viewBox="0 0 17.4 14.1" style="enable-background:new 0 0 17.4 14.1;" xml:space="preserve">
<style type="text/css">
	.st0{fill:#FFFFFF;stroke:#FFFFFF;stroke-width:0.719;stroke-miterlimit:10;}
</style>
<g id="XMLID_140_">
	<g id="OWeILb_9_">
		<g id="XMLID_141_">
			<g id="XMLID_289_">
				<path id="XMLID_290_" class="st0" d="M9.4,0.4c0.3,0,0.5,0.1,0.8,0.1c2.4,0.4,4.3,1.5,5.7,3.5c0.5,0.7,0.9,1.4,1.1,2.2
					c0.1,0.4,0,0.8-0.2,1.1C16,8.4,15,9.2,13.9,10c0,0,0,0,0,0c0-0.1,0-0.1,0-0.2c0-1.6,0-3.1,0-4.7c0-0.7-0.3-0.9-0.9-0.9
					c-0.3,0-0.7,0-1,0c-0.5,0-0.8,0.3-0.8,0.8c0,2,0,4,0,5.9c0,0.7-0.3,0.9-0.9,1c0-0.1,0-0.2,0-0.3c0-1.6,0-3.2,0-4.8
					c0-0.7-0.3-0.9-0.9-0.9c-0.3,0-0.6,0-0.9,0c-0.5,0-0.8,0.3-0.8,0.8c0,1.8,0,3.6,0,5.3c0,0.7-0.1,0.7-0.7,0.9c-0.1,0-0.1,0-0.2,0
					c0-0.1,0-0.2,0-0.2c0-1.4,0-2.8,0-4.2c0-0.7-0.3-0.9-0.9-0.9c-0.3,0-0.7,0-1,0c-0.5,0-0.8,0.3-0.8,0.8c0,1.5,0,2.9,0,4.4
					c0,0.5-0.2,0.7-0.7,0.8c-0.3,0-0.5,0-0.8,0.1c-0.4,0-0.8-0.2-1-0.6c-0.6-1.1-1-2.2-1.1-3.5c0-0.1,0-0.2,0-0.2c0-0.4,0-0.7,0-1.1
					c0,0,0-0.1,0-0.2c0.1-1.2,0.4-2.3,1-3.3C2.8,2.4,4.9,1,7.6,0.5c0.3,0,0.6-0.1,0.9-0.1C8.8,0.4,9.1,0.4,9.4,0.4z"/>
			</g>
		</g>
	</g>
</g>
</svg>
