<?xml version="1.0" encoding="utf-8"?>
<!-- Generator: Adobe Illustrator 19.0.0, SVG Export Plug-In . SVG Version: 6.00 Build 0)  -->
<svg version="1.1" id="Layer_1" xmlns="http://www.w3.org/2000/svg" xmlns:xlink="http://www.w3.org/1999/xlink" x="0px" y="0px"
	 viewBox="0 0 14 11.8" style="enable-background:new 0 0 14 11.8;" xml:space="preserve">
<style type="text/css">
	.st0{fill:#FFFFFF;stroke:#FFFFFF;stroke-width:0.719;stroke-miterlimit:10;}
</style>
<path id="XMLID_140_" class="st0" d="M5.9,7.7c1.7-1.6,3.2-3,4.8-4.5c0-0.1-0.1-0.1-0.1-0.2C9.7,3.5,8.8,4.1,7.8,4.6
	C7.1,5.1,6.3,5.4,5.6,6C4,7.4,2.5,6.4,0.8,5.7c4-2,8.2-3.4,12.7-5.1c-0.3,1.5-0.5,2.7-0.7,3.9c-0.4,2-0.8,4-1.2,6
	c-0.2,0.9-0.6,1.3-1.4,0.7C8.8,10.1,7.4,8.9,5.9,7.7z"/>
</svg>
