<?xml version="1.0" encoding="utf-8"?>
<!-- Generator: Adobe Illustrator 19.0.0, SVG Export Plug-In . SVG Version: 6.00 Build 0)  -->
<svg version="1.1" id="Layer_1" xmlns="http://www.w3.org/2000/svg" xmlns:xlink="http://www.w3.org/1999/xlink" x="0px" y="0px"
	 viewBox="0 0 17.9 13.4" style="enable-background:new 0 0 17.9 13.4;" xml:space="preserve">
<style type="text/css">
	.st0{fill:#FFFFFF;stroke:#FFFFFF;stroke-width:0.719;stroke-miterlimit:10;}
</style>
<g id="XMLID_603_">
	<g id="kqEnyu_9_">
		<g id="XMLID_604_">
			<path id="XMLID_605_" class="st0" d="M7.1,0.8C6.6,1,6,1.1,5.5,1.3S4.5,1.7,4,2C3.8,2.1,3.6,2.3,3.8,2.5c0.2,0.2,0.4,0.2,0.6,0.1
				c3-1.6,6.1-1.6,9.1,0c0.2,0.1,0.5,0.2,0.6-0.1c0.2-0.3,0-0.4-0.3-0.6C13,1.5,12,1.1,11.1,1c-0.1,0-0.2,0-0.2-0.1c0,0,0,0-0.1,0
				c0.1-0.4,0.2-0.5,0.6-0.5c1.1,0.1,2.1,0.4,3,0.9c0.6,0.3,1,0.7,1.3,1.3c0.7,1.5,1.2,3,1.5,4.5c0.2,1,0.2,1.9,0.4,2.9
				c0.1,0.4-0.1,0.7-0.3,1c-0.5,0.7-1.2,1.1-2,1.4c-0.7,0.2-1.5,0.4-2.2,0.6c-0.3,0.1-0.5,0-0.7-0.3c-0.2-0.3-0.4-0.5-0.5-0.8
				c0.5-0.2,1-0.4,1.5-0.6c0.4-0.2,0.8-0.5,1.2-0.7c0.2-0.1,0.3-0.4,0.1-0.6c-0.2-0.2-0.4-0.2-0.5,0c-3,1.9-6.1,1.9-9.2,0.6
				c-0.4-0.1-0.7-0.4-1-0.6c-0.2-0.1-0.4-0.2-0.6,0.1s-0.1,0.4,0.1,0.5c0.7,0.4,1.5,0.7,2.2,1.1c0.1,0.1,0.3,0.1,0.5,0.2
				c-0.2,0.3-0.5,0.7-0.7,0.9C5.3,13,5.1,13,5,13c-1.3-0.2-2.6-0.5-3.7-1.4c-0.1-0.1-0.2-0.2-0.4-0.3c-0.5-0.4-0.7-0.9-0.6-1.6
				C0.6,7.4,1.1,5.1,2,3C2.4,2,3,1.4,3.9,1.1c0.8-0.3,1.7-0.5,2.5-0.7C6.9,0.3,7,0.4,7.1,0.8z M5.1,7.4C5.1,7.4,5.2,7.4,5.1,7.4
				c0.1,0.1,0.1,0.2,0.1,0.3c0.1,0.5,0.4,1,0.9,1.2C6.6,9,7,8.9,7.4,8.5c0.6-0.6,0.6-1.6,0-2.2C6.8,5.8,6,5.8,5.6,6.4
				C5.4,6.7,5.3,7.1,5.1,7.4z M12.6,7.4c0-1-0.8-1.6-1.6-1.5c-0.6,0.1-1,0.8-1,1.5c0,0.7,0.4,1.3,1,1.5C11.9,9.1,12.6,8.4,12.6,7.4z
				"/>
		</g>
	</g>
</g>
</svg>
